<?xml version="1.0" standalone="no"?>
<!DOCTYPE svg PUBLIC "-//W3C//DTD SVG 20010904//EN"
 "http://www.w3.org/TR/2001/REC-SVG-20010904/DTD/svg10.dtd">
<svg version="1.0" xmlns="http://www.w3.org/2000/svg"
 width="512.000000pt" height="512.000000pt" viewBox="0 0 512.000000 512.000000"
 preserveAspectRatio="xMidYMid meet">

<g transform="translate(0.000000,512.000000) scale(0.100000,-0.100000)"
fill="#000000" stroke="none">
<path d="M2073 5106 c-104 -34 -176 -98 -222 -196 -22 -46 -26 -69 -26 -140 0
-71 4 -94 26 -141 38 -81 91 -134 170 -172 l68 -33 -103 -190 c-304 -558
-1899 -3511 -1930 -3572 -94 -186 -64 -385 78 -528 106 -105 245 -150 388
-126 83 14 121 34 778 390 l405 220 40 -38 c54 -51 95 -70 152 -70 65 0 130
34 167 87 26 38 30 54 35 138 l6 96 210 114 210 114 7 -32 c4 -18 19 -156 33
-307 21 -238 27 -280 48 -319 61 -120 221 -148 325 -57 65 57 67 68 102 556
20 273 37 449 44 456 6 7 277 155 601 330 325 174 594 321 598 325 8 6 -28 89
-38 89 -3 0 -258 -137 -568 -304 -309 -168 -569 -308 -578 -311 -14 -5 -16 0
-12 42 6 56 34 121 66 151 12 12 232 134 487 272 256 138 480 266 498 283 106
101 118 275 27 389 -68 84 -69 89 -75 268 -6 142 -10 171 -28 211 -33 68 -95
120 -217 184 -152 79 -172 102 -224 258 -72 216 -128 263 -346 292 -161 22
-180 34 -275 165 -87 119 -141 162 -226 180 -48 10 -76 9 -189 -10 -151 -25
-164 -23 -261 35 -59 36 -119 50 -179 43 -19 -2 -35 -2 -35 0 0 15 87 165 98
170 24 9 283 -18 404 -43 685 -139 1269 -589 1572 -1209 149 -305 216 -567
234 -926 8 -151 11 -170 37 -222 34 -69 92 -128 165 -165 49 -25 66 -28 150
-28 85 0 101 3 152 29 69 35 128 94 165 166 28 54 28 57 27 230 -4 593 -213
1198 -585 1690 -483 640 -1182 1049 -1975 1155 -165 22 -429 28 -481 11z m332
-96 c567 -51 1070 -250 1525 -600 125 -96 396 -369 491 -495 306 -403 507
-873 568 -1330 6 -44 13 -97 16 -117 l5 -37 -55 34 c-132 79 -288 70 -407 -26
l-37 -30 -5 23 c-3 13 -12 73 -21 133 -42 271 -149 563 -295 805 -341 565
-875 952 -1513 1094 -130 29 -351 56 -468 56 -44 0 -96 7 -124 17 -92 31 -165
134 -165 233 0 97 73 202 161 233 52 18 170 21 324 7z m-109 -903 c98 -60 134
-64 299 -37 l141 23 55 -25 c48 -22 64 -37 126 -124 115 -160 141 -177 334
-205 195 -29 213 -43 278 -231 22 -64 46 -129 55 -145 27 -52 90 -100 219
-169 114 -60 131 -73 155 -113 25 -43 27 -55 33 -211 6 -180 15 -213 82 -289
59 -68 72 -142 38 -217 -10 -23 -34 -53 -52 -66 -19 -14 -232 -132 -474 -263
-242 -130 -455 -248 -473 -262 -48 -36 -90 -99 -107 -157 -8 -30 -31 -280 -55
-599 -22 -302 -44 -557 -50 -567 -19 -35 -61 -60 -102 -60 -32 0 -47 7 -73 33
-39 39 -37 29 -65 352 -24 266 -32 315 -65 370 -130 221 -453 209 -566 -21
-22 -45 -24 -63 -29 -249 -3 -110 -9 -208 -14 -218 -10 -21 -57 -47 -86 -47
-37 0 -74 27 -135 100 -65 76 -126 122 -190 139 -53 15 -132 13 -177 -3 -20
-7 -258 -136 -529 -286 -539 -299 -543 -300 -634 -266 -53 21 -110 81 -125
134 -9 29 -9 52 -1 93 9 41 240 477 931 1754 l920 1700 35 -3 c97 -8 212 -99
261 -205 25 -53 29 -75 29 -147 0 -76 -4 -93 -32 -151 -62 -125 -178 -202
-308 -203 -38 -1 -88 3 -111 7 l-41 8 -16 -42 c-9 -23 -15 -45 -12 -47 10 -10
123 -32 165 -32 278 0 498 259 452 533 -28 168 -152 314 -309 364 -51 16 -52
17 -35 36 9 11 35 28 57 39 60 28 127 20 201 -25z m2559 -1704 c103 -35 174
-148 162 -255 -17 -141 -152 -246 -286 -223 -66 11 -140 63 -173 121 -115 206
74 433 297 357z m-2452 -1217 c84 -36 86 -34 -110 -139 -99 -53 -183 -97 -187
-97 -14 0 -4 87 14 125 26 56 40 71 91 100 51 29 139 34 192 11z m-859 -437
c23 -6 55 -20 69 -32 l27 -22 -463 -250 c-666 -360 -622 -340 -726 -340 -72 0
-95 4 -141 26 -30 15 -63 33 -73 41 -17 12 -11 14 47 10 43 -3 82 1 113 11 27
9 263 135 526 281 263 146 490 269 505 275 36 13 65 13 116 0z"/>
<path d="M3063 3595 c-147 -45 -256 -181 -257 -320 -1 -76 25 -129 83 -170 85
-60 230 -32 335 65 52 48 103 144 112 210 21 157 -116 265 -273 215z m122 -99
c103 -43 43 -225 -97 -295 -68 -34 -80 -36 -127 -20 -120 42 -40 259 116 315
49 17 66 17 108 0z"/>
<path d="M2356 3063 c-27 -4 -28 -6 -22 -46 9 -61 79 -196 124 -240 l39 -38
32 36 32 37 -37 40 c-41 46 -81 126 -90 181 -7 39 -9 40 -78 30z"/>
<path d="M3026 2914 c-225 -54 -377 -286 -338 -517 62 -367 512 -513 773 -252
329 330 18 879 -435 769z m260 -118 c77 -35 145 -103 181 -180 24 -52 28 -74
28 -146 0 -72 -4 -94 -28 -146 -36 -77 -104 -145 -182 -181 -51 -24 -73 -28
-145 -28 -72 0 -94 4 -145 28 -78 36 -146 104 -182 181 -24 52 -28 74 -28 146
0 72 4 94 28 145 86 183 293 263 473 181z"/>
<path d="M1706 2664 c-225 -54 -377 -286 -338 -517 62 -367 512 -513 773 -252
329 330 18 879 -435 769z m260 -118 c77 -35 145 -103 181 -180 24 -52 28 -74
28 -146 0 -72 -4 -94 -28 -146 -36 -77 -104 -145 -182 -181 -51 -24 -73 -28
-145 -28 -72 0 -94 4 -145 28 -78 36 -146 104 -182 181 -24 52 -28 74 -28 146
0 72 4 94 28 145 86 183 293 263 473 181z"/>
<path d="M1558 1580 c-44 -36 -154 -90 -185 -90 -30 0 -36 -14 -28 -60 8 -48
22 -50 108 -21 68 24 128 59 182 106 l40 35 -35 30 c-19 16 -37 30 -40 30 -3
0 -22 -14 -42 -30z"/>
<path d="M775 1436 c-150 -56 -162 -261 -25 -410 48 -52 140 -102 206 -112
145 -21 256 101 225 247 -41 189 -252 331 -406 275z m138 -100 c119 -43 207
-190 163 -274 -50 -98 -227 -38 -295 100 -34 68 -36 80 -20 127 19 55 78 73
152 47z"/>
</g>
</svg>
